<svg width="23" height="31" viewBox="0 0 23 31" fill="none" xmlns="http://www.w3.org/2000/svg">
<g clip-path="url(#clip0)">
<path fill-rule="evenodd" clip-rule="evenodd" d="M11.8485 25.3636C13.4668 25.3636 14.9904 25.6947 16.376 26.3478C17.7565 26.997 18.9876 27.9305 19.9905 29.0885C20.2693 29.4105 20.5467 29.7691 20.8129 30.1559L20.9091 30.2954H2.78788L2.88336 30.1559C3.13781 29.7853 3.41237 29.4292 3.70579 29.0892C4.70878 27.9308 5.94015 26.9971 7.32097 26.3478C8.70654 25.6947 10.2301 25.3636 11.8485 25.3636ZM11.5 -0.70459C17.841 -0.70459 23 4.51046 23 10.9204C23 17.3304 17.841 22.5454 11.5 22.5454C5.15897 22.5454 0 17.3304 0 10.9204C0 4.51046 5.15897 -0.70459 11.5 -0.70459ZM11.5 3.52268C7.46455 3.52268 4.18182 6.84109 4.18182 10.9204C4.18182 14.9997 7.46455 18.3181 11.5 18.3181C15.5355 18.3181 18.8182 14.9997 18.8182 10.9204C18.8182 6.84109 15.5355 3.52268 11.5 3.52268Z" fill="#FED097"/>
</g>
<defs>
<clipPath id="clip0">
<rect width="23" height="31" fill="white"/>
</clipPath>
</defs>
</svg>
